<?xml version="1.0" standalone="no"?>
<!DOCTYPE svg PUBLIC "-//W3C//DTD SVG 20010904//EN"
 "http://www.w3.org/TR/2001/REC-SVG-20010904/DTD/svg10.dtd">
<svg version="1.0" xmlns="http://www.w3.org/2000/svg"
 width="1064.000000pt" height="1064.000000pt" viewBox="0 0 1064.000000 1064.000000"
 preserveAspectRatio="xMidYMid meet">
<metadata>
Created by potrace 1.11, written by Peter Selinger 2001-2013
</metadata>
<g transform="translate(0.000000,1064.000000) scale(0.100000,-0.100000)"
fill="#000000" stroke="none">
<path d="M5201 8744 c-349 -59 -657 -275 -835 -589 -159 -278 -192 -651 -85
-969 78 -235 248 -459 448 -596 227 -154 524 -229 798 -202 305 30 539 139
748 347 161 162 252 320 312 542 25 91 27 113 27 298 0 184 -2 208 -26 296
-110 408 -396 707 -799 834 -171 54 -405 69 -588 39z"/>
<path d="M5280 4205 c-8 -2 -49 -9 -90 -15 -416 -68 -780 -384 -913 -795 -81
-248 -77 -547 9 -787 101 -280 324 -532 592 -667 271 -137 628 -160 927 -60
386 129 675 438 782 836 25 91 27 113 27 298 0 185 -2 207 -27 298 -86 318
-281 577 -556 736 -89 52 -232 107 -338 132 -81 18 -368 35 -413 24z"/>
</g>
</svg>
