<svg id="Layer_1" data-name="Layer 1" xmlns="http://www.w3.org/2000/svg" viewBox="0 0 639.06 429.77"><defs><style>.cls-1,.cls-2,.cls-3{fill:#fff;}.cls-2,.cls-3{font-size:35.93px;}.cls-2{font-family:BrandonGrotesque-Light, Brandon Grotesque;}.cls-3{font-family:BrandonGrotesque-Black, Brandon Grotesque;}</style></defs><title>logo</title><path class="cls-1" d="M516.53,237.94a4.12,4.12,0,0,0,4,3.95h13.3c4,0,5.21-.9,5.21-3.95V190.51c2-5.75,7.19-12.94,18-12.94,10.06,0,14.37,6.65,14.37,17.43v42.94a4,4,0,0,0,3.95,3.95h14.55a4.12,4.12,0,0,0,4-3.95V195c0-20.12-6.83-37.91-33.24-37.91-16,0-23.72,8.62-26.77,12l-3-7.73a3.18,3.18,0,0,0-3.42-2.51h-6.83a4,4,0,0,0-4,4Zm-23-75.1a4,4,0,0,0-4-4h-6.65c-2,0-3.23,1.61-3.95,4l-2.15,6.65a35.85,35.85,0,0,0-27.13-12.4c-22.64,0-39.71,18.32-39.71,43.48,0,24.25,16.35,43.3,41.14,43.3a61.63,61.63,0,0,0,19.95-3.42v2.34c0,15.45-6.83,19.76-19.59,19.76-8.62,0-16.71-4.49-19.76-6.29-1.8-1.08-4.13-.54-4.85,1.08L421.49,269a3.85,3.85,0,0,0,.9,4.67c3.95,3.06,16.17,9.34,29.82,9.34,22.64,0,41.33-13.47,41.33-40.24Zm-22.46,55.87a32.81,32.81,0,0,1-17.25,4.68c-13.65,0-20.66-11.14-20.66-22.82s6.64-23,19.58-23c10.78,0,16.53,6.83,18.33,11.5ZM363.1,229A15,15,0,1,0,378,214,14.88,14.88,0,0,0,363.1,229ZM378,186.73a14.82,14.82,0,1,0-14.91-14.91A14.79,14.79,0,0,0,378,186.73Zm-63.42,57.14c20.84,0,32-11.68,32-24.8,0-16.53-11.5-22.28-27.49-28.74-7.72-3.24-11.86-5.21-11.86-9,0-2.69,2.34-5.39,7.91-5.39,6.83,0,12.58,2.34,16.53,4.14a4.15,4.15,0,0,0,5.21-1.62l4.67-9.52c1.08-2.16,0-4.32-1.8-5.75-4.49-2.88-12.39-6.11-24.61-6.11-20.3,0-29.82,11.68-29.82,24.25s7.18,20.13,23.17,26.23c11,4.32,15.63,7.73,15.63,11.5,0,3.6-2.87,5.93-9.16,5.93a33.59,33.59,0,0,1-18.33-5.39,3.14,3.14,0,0,0-4.85,1.44l-5.39,10.78a3.66,3.66,0,0,0,1.08,4.49C292.13,239.55,300.76,243.87,314.59,243.87ZM216.85,190c1.08-8.27,7.55-14.38,17.61-14.38,9.16,0,15.63,6.29,16,14.38Zm-23.71,10.42c0,23.71,17.25,43.48,42,43.48a46.85,46.85,0,0,0,30.9-11.32c2-1.8,1.8-3.78.36-5.39l-7-9.35c-1.25-1.79-3.41-1.61-5.39,0a27.45,27.45,0,0,1-17.78,6.11c-12,0-20.48-9-20.66-19.22h53.18a4.22,4.22,0,0,0,4-3.77c.18-1.26.36-4.14.36-5.39,0-22.46-16.53-38.45-38.09-38.45C210.39,157.09,193.14,177,193.14,200.39ZM99,237.94a4.12,4.12,0,0,0,4,3.95h14.19c3.23,0,4.31-1.62,4.31-3.95V192.12c2.16-8.44,7.55-14.55,17.25-14.55,9.88,0,15.09,7,15.09,18.51v41.86a4,4,0,0,0,4,3.95H172.3a4.12,4.12,0,0,0,3.95-3.95V196.26c0-20.85-7.19-39.17-33.6-39.17-9.88,0-17.06,3.41-21.2,7v-44a4.1,4.1,0,0,0-4-4H103a4.25,4.25,0,0,0-4,4ZM34.5,217.1c0,14.37,4.67,26.77,23.17,26.77,8.63,0,20.49-3.78,23.36-5.39,2-1.08,2.87-2.7,2.34-4.85l-2.34-11c-.36-2-2.34-3.06-4.67-2.16-2.16.72-9,2.69-12.58,2.69-4.13,0-6.83-1.25-6.83-6.82V179H76.36a4.12,4.12,0,0,0,4-3.95V162.84a3.87,3.87,0,0,0-4-4H57v-23a3.83,3.83,0,0,0-3.77-3.95H38.45a4.1,4.1,0,0,0-4,3.95v23H26.41a3.73,3.73,0,0,0-3.77,4v12.22A4,4,0,0,0,26.41,179H34.5Z"/><text class="cls-2" transform="translate(407.98 331.89)">C</text><text class="cls-2" transform="translate(436.36 331.89)">R</text><text class="cls-2" transform="translate(462.29 331.89)">E</text><text class="cls-2" transform="translate(486.34 331.89)">A</text><text class="cls-2" transform="translate(510.98 331.89)">T</text><text class="cls-2" transform="translate(530.51 331.89)">I</text><text class="cls-2" transform="translate(542.43 331.89)">V</text><text class="cls-2" transform="translate(568.39 331.89)">E</text><text class="cls-3" transform="translate(407.98 367.86)">L</text><text class="cls-3" transform="translate(430.15 367.86)">A</text><text class="cls-3" transform="translate(456.55 367.86)">B</text></svg>